<?xml version="1.0" encoding="utf-8"?>
<!-- Generator: Adobe Illustrator 23.0.2, SVG Export Plug-In . SVG Version: 6.00 Build 0)  -->
<svg version="1.1" id="Layer_1" xmlns="http://www.w3.org/2000/svg" xmlns:xlink="http://www.w3.org/1999/xlink" x="0px" y="0px"
	 viewBox="0 0 595.28 595.28" style="enable-background:new 0 0 595.28 595.28;" xml:space="preserve">
<style type="text/css">
	.st0{fill:#79C79E;}
	.st1{fill:#F597A9;}
	.st2{fill:#46B3BD;}
	.st3{fill:#8A98B6;}
	.st4{fill:#F3797A;}
</style>
<g>
	<path class="st2" d="M117.63,188.04c0,0-19.87,35.59-50.67,12.27c-30.8-23.32,19.69-98.68,60.89-83.08
		c35.53,13.45-2.75,123.96-2.75,123.96s-8.21,20.2,16.31,25.93c0,0,4.88-17.11,9.85-39.15c8.93-17.42,23.2-40.34,26.14-40.44
		c4.14-0.14-6.1,33.4-3.11,44.96c2.99,11.56,21.52,15.06,21.52,15.06s38.3-99.06,45.06-98.52c6.76,0.54-17.56,74.98-20.12,99.99
		c-1.48,14.46,8.24,35.73,24.56,35.44c20.12-0.35,46.4-61.79,58.28-86.36c1.62-3.36,3.24-6.78,4.8-10.22
		c7.84,1.94,13.75,1.89,13.75,1.89c-15.15,26.71-28.41,70.46-19.84,93.24c8.57,22.78,33.14,28.67,47.41,6.39
		c14.26-22.27-0.8-30.56-0.8-30.56c-8.36,28.03-25.86,41.6-31.45,27.53c-4.73-11.89,1.07-40.13,16.3-70.08
		c11.89-23.4,17.73-34.58,6.76-39.86c-5.15-2.48-15.47-1.24-26.25-2.74c4.5-12.23,7.16-24.16,5.26-34.21
		c-3.17-16.74-27.43-23.33-37.83-16.75c-10.4,6.58-18,29.71,0.18,50.03c4.69,5.24,10.24,8.86,15.7,11.37
		c-15.77,34.14-45.86,92.32-55.03,87.99c-7.87-3.72,12.62-69.66,19.71-96.87c7.09-27.21-8.42-40.93-24.24-41.16
		c-15.82-0.23-42.25,67.57-42.25,67.57c3.44-12.82-0.01-22.55-12.38-28.09c-8.35-3.73-18.65,7.1-24.49,14.55
		c2.95-19.69,4.1-38.05,0.71-48.08c-10.37-30.7-36.17-45.52-72.5-29.08c-38.1,17.25-47.25,65.89-31.04,88.99
		C71.64,222.16,124.4,224.26,117.63,188.04z M298.32,168.56c-15.08-8.81-15.6-38.61-3.94-38.75c11.66-0.15,20.04,12.27,12.06,33.8
		c-0.68,1.83-1.7,4.35-3.01,7.39C301.7,170.33,299.98,169.53,298.32,168.56z M422.82,306.29c24.66,0,52.47-15.19,59.38-49.09
		c16.71-1,28.93-10.85,32.77-26.5c2.77-11.28,0.58-25.53-7.76-36.54c-3.33-4.65-11-13.4-21.65-13.4c-4.62,0-9.28,1.68-13.85,5.01
		l-1.76,1.28l2.1,0.56c0.07,0.02,6.73,1.83,13.94,6.31c2.92,1.81,6.19,4.24,9.17,7.35c4.22,4.66,7.28,10.27,8.73,15.99l0.15,0.64
		c0.96,4.11,1.09,8.25,0.23,12.12c-2.12,9.46-9.61,15.3-21.15,16.53c0.45-11.99-4.67-28.67-18.08-30.46
		c-0.87-0.09-1.74-0.14-2.57-0.14c-8.95,0-15.06,5.58-15.55,14.21c-0.65,11.34,8.34,24.16,24.54,26.55
		c-5.63,25.09-27.81,40.04-46.34,40.04c-8.53,0-15.97-3.02-21.51-8.74c-7.51-7.76-11.21-20.24-10.71-36.09
		c0.58-19.16,7.88-39.03,17.48-47.88c5.85,6.53,15.75,10.7,25.57,10.7c0,0,0,0,0,0c10.76,0,18.01-4.96,19.4-13.3
		c0.49-3.69-0.37-6.82-2.56-9.32c-4.75-5.43-14.42-6.24-19.76-6.24c-5.77,0-11.84,0.91-16.12,2.39c-2.87-5.94-0.91-17.24,4.84-27.42
		c3.8-6.71,14.71-22.33,34.11-22.33c1.66,0,3.36,0.12,5.03,0.36c7.93,1.3,11.06,7.77,10.62,13.23c-0.42,5.13-4.17,10.31-11.6,10.31
		c-1.47,0-3.05-0.2-4.63-0.58c-0.85-0.26-1.7-0.39-2.53-0.39c-3.04,0-5.49,1.81-5.81,4.29c-0.28,2.17,1.2,4.96,6.25,6.29
		c2.2,0.48,4.39,0.72,6.48,0.72h0c10.15,0,21.35-6.74,22.11-19.23c0.63-10.3-7.08-23.37-30.94-26.31c-2.28-0.22-4.55-0.33-6.75-0.33
		c-18.64,0-33.91,8.17-41.89,22.42c-7.73,13.8-7.36,31.02,0.89,45.21c-20.17,10.97-33.81,32.6-34.84,55.44
		c-0.46,16.2,4.52,30.12,14.39,40.27C392.62,300.42,407.25,306.29,422.82,306.29z M455.98,230.2c0.23-3.5,2.57-5.51,6.44-5.51
		c0.73,0,1.52,0.07,2.3,0.21c7.33,1.56,8.51,13.76,8.02,21.51C461.24,244.45,455.61,235.87,455.98,230.2z M445.92,199.91
		c-0.57,4.19-2.84,6.32-6.74,6.32c-5.04,0-12.25-3.72-17.04-8.66c3.16-0.96,10.32-2.91,16.19-2.91c3.33,0,5.69,0.67,6.8,1.93
		C445.84,197.4,446.1,198.49,445.92,199.91z M344.99,173.17c0,0,11.27-1.34,11.34,9.2c0.08,13.78-14.91,27.22-14.91,27.22
		C362.43,175.28,344.99,173.17,344.99,173.17z M514.56,194.7c26.42,27.48-0.13,48.75-0.13,48.75
		C531.32,221.74,514.56,194.7,514.56,194.7z M117.75,240.12c0,0-6.85,21.67,12.17,32.07c0,0-12.68-0.21-17.7-12.18
		C108.07,250.13,117.75,240.12,117.75,240.12z"/>
	<path class="st4" d="M513.14,330.07c0,0,11.5,10.69,14.94,25.3c3.08,13.06-0.75,29.44-17.76,41.06
		c-22.18,15.14-36.32,21.55-48.02,26.15c-0.64-1.84-1.33-3.7-2.08-5.61c-19.27-48.93-15.1-53.63-3-63.43
		c12.1-9.8-6.02-23.99-6.02-23.99s-28.36,10.31-23.14,44.65c-19.58,50.51-57.38,102.24-63.41,88.12
		c-3.64-8.53-4.66-21.67,10.56-51.62c11.89-23.4,17.72-34.57,6.76-39.86c-5.16-2.49-15.52-1.24-26.32-2.75
		c4.65-12.19,7.22-24.23,5.33-34.2c-3.18-16.74-27.43-23.33-37.83-16.75c-10.4,6.58-18,29.71,0.18,50.03
		c4.79,5.36,10.48,9.02,16.06,11.54c-15.82,36.68-46.82,102.58-56.06,98.22c-7.87-3.72,13.3-80.05,20.39-107.26
		c7.09-27.21-8.42-40.93-24.24-41.16c-15.83-0.23-42.25,67.57-42.25,67.57c3.45-12.82,0-22.55-12.38-28.09
		c-8.35-3.73-18.65,7.1-24.49,14.55c2.95-19.69,4.1-38.05,0.71-48.08c-10.37-30.7-34.03-45.53-70.36-29.09
		c-38.1,17.25-55.33,64.96-35.79,89.39c16.93,21.17,70.93,23.9,64.17-12.32c0,0-19.87,35.6-50.67,12.28
		c-30.8-23.32,19.69-98.68,60.89-83.08c35.53,13.45-2.75,123.96-2.75,123.96s-8.21,20.2,16.31,25.93c0,0,4.88-17.11,9.85-39.15
		c8.93-17.42,23.2-40.34,26.14-40.44c4.14-0.14-6.1,33.39-3.11,44.96c2.99,11.56,21.52,15.07,21.52,15.07s38.3-99.07,45.06-98.53
		c6.76,0.54-19.2,87.49-20.8,110.38c-1.02,14.5,8.24,35.73,24.56,35.44c20.12-0.35,47.18-77.42,57.92-96.72
		c1.87-3.37,3.7-6.84,5.44-10.36c8.04,2.05,14.15,1.99,14.15,1.99c-14.77,30.64-25.83,59.64-15.08,81.47
		c10.04,20.39,32.44,8.55,43.39-4.62c18.6-22.37,33.72-54.7,40.58-70.68c5.57,14.73,10.28,27.56,13.63,38.53
		c-4.58,1.93-9.22,4.15-14.35,7.23c-25.4,15.2-23.25,47.22,2.87,52.74c22.72,4.8,40.75-13.83,31.57-52.98
		c27.45-10.55,61.59-23.54,71.62-38.32C553.63,374.28,550.67,335.69,513.14,330.07z M339.81,362.97
		c-15.08-8.81-15.6-38.61-3.94-38.75c11.66-0.14,20.04,12.27,12.06,33.8c-0.66,1.79-1.66,4.31-2.93,7.42
		C343.23,364.76,341.49,363.95,339.81,362.97z M443.54,474.18c-15.73,9.93-24.01-11.21-13.26-21.72
		c2.99-2.93,10.15-6.32,19.45-10.12C453.21,458.26,452.03,468.82,443.54,474.18z M383.06,404.65c21.02-34.3,3.57-36.42,3.57-36.42
		s11.27-1.34,11.34,9.2C398.05,391.21,383.06,404.65,383.06,404.65z M472.93,446.9c0,0,9.02,13.34,3.87,29.33
		c-5.48,17.04-19.45,14.76-19.45,14.76C480.83,480.32,472.93,446.9,472.93,446.9z M171.85,465.52c0,0-12.68-0.21-17.7-12.18
		c-4.15-9.88,5.53-19.89,5.53-19.89S152.83,455.11,171.85,465.52z"/>
</g>
</svg>
